<svg width="116" height="34" viewBox="0 0 116 34" fill="none" xmlns="http://www.w3.org/2000/svg">
<path d="M42.2144 2.37744C42.3875 2.37744 42.474 2.46196 42.474 2.63099C42.474 2.709 42.4587 2.78701 42.4282 2.86503L37.3441 16.4589C37.283 16.6149 37.2118 16.719 37.1304 16.771C37.0591 16.823 36.9421 16.849 36.7792 16.849H34.3059C34.143 16.849 34.0209 16.823 33.9394 16.771C33.8682 16.719 33.8224 16.6149 33.802 16.4589L31.6951 2.84552C31.6849 2.80652 31.6799 2.74801 31.6799 2.66999C31.6799 2.47496 31.7715 2.37744 31.9547 2.37744H34.9624C35.054 2.37744 35.1201 2.41645 35.1608 2.49446C35.2016 2.57248 35.2321 2.7025 35.2524 2.88453L36.3517 11.31C36.3721 11.427 36.3924 11.4855 36.4128 11.4855C36.4433 11.4855 36.4738 11.4335 36.5044 11.3295L39.4052 2.6895C39.4459 2.57248 39.4917 2.49446 39.5426 2.45546C39.6037 2.40345 39.6851 2.37744 39.7869 2.37744H42.2144Z" fill="black"/>
<path d="M42.7942 2.709C42.8044 2.56597 42.8248 2.47496 42.8553 2.43595C42.896 2.39694 42.9622 2.37744 43.0538 2.37744H51.3593C51.512 2.37744 51.5883 2.49446 51.5883 2.7285C51.5883 2.80652 51.5832 2.86503 51.573 2.90403L51.3135 5.16643C51.2931 5.32246 51.2575 5.43298 51.2066 5.49799C51.1557 5.55 51.0641 5.576 50.9318 5.576H46.1989C46.1073 5.576 46.036 5.60201 45.9851 5.65402C45.9444 5.69302 45.919 5.78404 45.9088 5.92706L45.7103 7.72138L45.6951 7.8579C45.6951 7.92291 45.7052 7.96842 45.7256 7.99443C45.7561 8.00743 45.807 8.01393 45.8783 8.01393H48.7638C48.8656 8.01393 48.9318 8.03993 48.9623 8.09194C48.9928 8.14395 48.9979 8.22847 48.9776 8.34549L48.7027 10.9004C48.6926 11.0045 48.6722 11.076 48.6417 11.115C48.6111 11.141 48.5501 11.154 48.4585 11.154H45.5118C45.4406 11.154 45.3897 11.18 45.3592 11.232C45.3286 11.271 45.3032 11.349 45.2828 11.466L45.0691 13.3969V13.4944C45.0691 13.5984 45.1047 13.6504 45.176 13.6504H50.26C50.3618 13.6504 50.428 13.6764 50.4585 13.7284C50.489 13.7804 50.4941 13.878 50.4738 14.021L50.2142 16.5369C50.1939 16.6539 50.1633 16.7385 50.1226 16.7905C50.0819 16.8295 50.0005 16.849 49.8783 16.849H41.6644C41.5321 16.849 41.4354 16.8165 41.3744 16.7515C41.3133 16.6734 41.2827 16.5629 41.2827 16.4199L41.298 16.2444L42.7942 2.709Z" fill="black"/>
<path d="M60.6709 16.3224C60.6913 16.3874 60.7014 16.4654 60.7014 16.5564C60.7014 16.7515 60.6047 16.849 60.4114 16.849H57.4495C57.3375 16.849 57.251 16.8165 57.1899 16.7515C57.1288 16.6734 57.083 16.5369 57.0525 16.3419L56.167 11.31C56.1466 11.232 56.1212 11.18 56.0907 11.154C56.0703 11.115 56.0194 11.0955 55.938 11.0955H55.0219C54.9405 11.0955 54.8845 11.115 54.854 11.154C54.8235 11.193 54.8031 11.2515 54.7929 11.3295L54.228 16.4004C54.2077 16.5954 54.1568 16.719 54.0753 16.771C54.0041 16.823 53.8718 16.849 53.6784 16.849H51.1135C50.8488 16.849 50.7369 16.6474 50.7776 16.2444L52.2738 2.709C52.284 2.56597 52.3043 2.47496 52.3349 2.43595C52.3756 2.39694 52.4417 2.37744 52.5333 2.37744H57.6327C58.9864 2.37744 60.0348 2.709 60.7778 3.37212C61.531 4.02223 61.9076 4.93239 61.9076 6.1026C61.9076 7.05176 61.6887 7.92941 61.2511 8.73556C60.8236 9.5417 60.2638 10.1203 59.5716 10.4714C59.4393 10.5364 59.3579 10.5949 59.3274 10.6469C59.307 10.6989 59.307 10.7704 59.3274 10.8614L60.6709 16.3224ZM56.854 8.18946C57.2713 8.18946 57.6174 8.00743 57.8922 7.64336C58.1772 7.2793 58.3197 6.85673 58.3197 6.37564C58.3197 6.01158 58.2128 5.73853 57.9991 5.5565C57.7955 5.36146 57.5309 5.26395 57.2052 5.26395H55.6479C55.5767 5.26395 55.5258 5.28995 55.4952 5.34196C55.4647 5.39397 55.4392 5.49799 55.4189 5.65402L55.1593 7.89691V7.99443C55.1593 8.07244 55.1695 8.12445 55.1899 8.15045C55.2204 8.17646 55.2662 8.18946 55.3273 8.18946H56.854Z" fill="black"/>
<path d="M61.3008 16.849C61.1481 16.849 61.0413 16.8165 60.9802 16.7515C60.9191 16.6734 60.8937 16.5369 60.9039 16.3419L60.9955 15.3667C61.0158 15.1847 61.0463 15.0287 61.0871 14.8986C61.138 14.7686 61.2296 14.5996 61.3619 14.3915L67.0414 5.81004C67.1228 5.68002 67.1635 5.61501 67.1635 5.61501C67.1635 5.60201 67.1177 5.59551 67.0261 5.59551H62.9802C62.8581 5.59551 62.7665 5.5435 62.7054 5.43948C62.6443 5.33546 62.624 5.19243 62.6443 5.0104L62.9039 2.66999C62.9141 2.53997 62.9344 2.46196 62.965 2.43595C63.0057 2.39694 63.0667 2.37744 63.1482 2.37744H72.2018C72.3748 2.37744 72.4461 2.52047 72.4155 2.80652L72.2934 3.8792C72.273 4.02223 72.2476 4.14575 72.2171 4.24977C72.1865 4.35379 72.1204 4.49031 72.0186 4.65934L66.1253 13.4359C66.0846 13.4879 66.0643 13.5334 66.0643 13.5724C66.0744 13.5984 66.105 13.6114 66.1559 13.6114H70.8735C70.9855 13.6114 71.0516 13.6374 71.072 13.6894C71.1025 13.7284 71.1127 13.8129 71.1025 13.943L70.8125 16.5369C70.7921 16.6539 70.7616 16.7385 70.7208 16.7905C70.6801 16.8295 70.5987 16.849 70.4766 16.849H61.3008Z" fill="black"/>
<path d="M81.6351 11.2515C81.401 13.3839 80.8259 14.8856 79.9098 15.7568C79.004 16.6149 77.7775 17.044 76.2304 17.044C74.6833 17.044 73.5637 16.6474 72.8715 15.8543C72.1794 15.0482 71.8333 13.8585 71.8333 12.2852C71.8333 11.8561 71.869 11.3035 71.9402 10.6274L72.8105 2.709C72.8206 2.56597 72.841 2.47496 72.8715 2.43595C72.9122 2.39694 72.9784 2.37744 73.07 2.37744H75.9708C76.0624 2.37744 76.1337 2.43595 76.1846 2.55297C76.2456 2.65699 76.266 2.77401 76.2456 2.90403L75.3296 11.3295C75.2889 11.7456 75.2685 12.0251 75.2685 12.1682C75.2685 12.8053 75.3805 13.2603 75.6044 13.5334C75.8283 13.8064 76.1591 13.943 76.5968 13.943C77.1566 13.943 77.635 13.7154 78.0319 13.2603C78.4391 12.7923 78.6986 12.0511 78.8106 11.037L79.7266 2.709C79.7368 2.56597 79.7572 2.47496 79.7877 2.43595C79.8284 2.39694 79.8946 2.37744 79.9862 2.37744H82.2763C82.3679 2.37744 82.4392 2.43595 82.49 2.55297C82.5511 2.65699 82.5715 2.77401 82.5511 2.90403L81.6351 11.2515Z" fill="black"/>
<path d="M86.4984 2.37744C86.6714 2.37744 86.7426 2.55297 86.7121 2.90403L85.2312 16.4004C85.2108 16.5954 85.1701 16.719 85.109 16.771C85.0479 16.823 84.9258 16.849 84.7426 16.849H82.0861C81.8723 16.849 81.7654 16.7125 81.7654 16.4394L81.7807 16.2444L83.2769 2.709C83.2871 2.56597 83.3074 2.47496 83.338 2.43595C83.3787 2.39694 83.4449 2.37744 83.5365 2.37744H86.4984Z" fill="black"/>
<path d="M86.316 16.849C86.2244 16.849 86.1582 16.8295 86.1175 16.7905C86.0768 16.7385 86.0564 16.6539 86.0564 16.5369C86.0564 16.4849 86.0666 16.3679 86.087 16.1859L87.5679 2.709C87.5781 2.55297 87.5984 2.46196 87.629 2.43595C87.6697 2.39694 87.746 2.37744 87.858 2.37744H92.1329C92.3568 2.37744 92.4942 2.52697 92.5451 2.82602L93.4612 8.9891C93.4612 9.06711 93.4815 9.10612 93.5222 9.10612C93.5528 9.10612 93.5833 9.06711 93.6138 8.9891L95.7665 2.84552C95.8174 2.66349 95.8734 2.53997 95.9345 2.47496C95.9956 2.40995 96.077 2.37744 96.1788 2.37744H100.698C100.861 2.37744 100.927 2.48146 100.896 2.6895L99.3849 16.4004C99.3646 16.5954 99.3239 16.719 99.2628 16.771C99.2119 16.823 99.0949 16.849 98.9117 16.849H96.3314C96.1889 16.849 96.0821 16.823 96.0108 16.771C95.9498 16.706 95.9192 16.5954 95.9192 16.4394C95.9192 16.3614 95.9243 16.2964 95.9345 16.2444L96.8811 7.68237V7.60436C96.8811 7.55235 96.8709 7.52634 96.8505 7.52634C96.8098 7.52634 96.7691 7.59136 96.7284 7.72138L93.5375 16.5954C93.4968 16.6995 93.451 16.771 93.4001 16.81C93.3492 16.836 93.278 16.849 93.1863 16.849H91.5833C91.4815 16.849 91.4051 16.823 91.3542 16.771C91.3034 16.706 91.2626 16.5824 91.2321 16.4004L89.9954 7.77989C89.9649 7.63686 89.9242 7.56535 89.8733 7.56535C89.8326 7.56535 89.8021 7.62386 89.7817 7.74088L88.8046 16.5369C88.7944 16.6669 88.7639 16.7515 88.713 16.7905C88.6723 16.8295 88.601 16.849 88.4992 16.849H86.316Z" fill="black"/>
<path d="M39.6465 18.4258C39.789 18.4258 39.8501 18.5298 39.8297 18.7379L38.2877 32.6633C38.2775 32.7543 38.247 32.8193 38.1961 32.8583C38.1554 32.8843 38.0841 32.8973 37.9823 32.8973H35.8907C35.8195 32.8973 35.7584 32.8713 35.7075 32.8193C35.6566 32.7543 35.5955 32.6503 35.5243 32.5073L32.0891 25.2325C32.0586 25.1675 32.028 25.135 31.9975 25.135C31.9364 25.135 31.9008 25.2195 31.8906 25.3885L31.0967 32.5268C31.0865 32.6828 31.056 32.7868 31.0051 32.8388C30.9644 32.8778 30.8728 32.8973 30.7303 32.8973H28.5318C28.3384 32.8973 28.257 32.7283 28.2875 32.3903L29.799 18.7574C29.8092 18.6143 29.8346 18.5233 29.8753 18.4843C29.916 18.4453 29.9924 18.4258 30.1043 18.4258H32.5929C32.7049 18.4258 32.7914 18.4648 32.8525 18.5428C32.9237 18.6078 32.995 18.7184 33.0662 18.8744L36.0434 25.3495C36.0943 25.4535 36.1452 25.5056 36.1961 25.5056C36.2266 25.5056 36.252 25.486 36.2724 25.447C36.3029 25.395 36.3233 25.33 36.3335 25.252L37.051 18.7184C37.0612 18.5883 37.0867 18.5103 37.1274 18.4843C37.1681 18.4453 37.2444 18.4258 37.3564 18.4258H39.6465Z" fill="black"/>
<path d="M38.8029 32.8973C38.6807 32.8973 38.6196 32.8323 38.6196 32.7023C38.6196 32.5983 38.6756 32.3903 38.7876 32.0782L43.9633 18.7769C44.0243 18.6338 44.0956 18.5428 44.177 18.5038C44.2686 18.4518 44.3908 18.4258 44.5434 18.4258H47.5511C47.6733 18.4258 47.7598 18.4843 47.8107 18.6013C47.8616 18.7054 47.9023 18.8549 47.9328 19.0499L50.1466 32.3317C50.1568 32.3708 50.1619 32.4293 50.1619 32.5073C50.1619 32.7673 50.0804 32.8973 49.9176 32.8973H46.9252C46.7827 32.8973 46.686 32.7543 46.6351 32.4683L46.2839 30.2644C46.2737 30.1994 46.2534 30.1539 46.2229 30.1279C46.2025 30.1019 46.1567 30.0889 46.0854 30.0889H42.8793C42.808 30.0889 42.752 30.1084 42.7113 30.1474C42.6706 30.1864 42.6299 30.2514 42.5892 30.3424L41.6731 32.7023C41.6426 32.7803 41.6019 32.8323 41.551 32.8583C41.5103 32.8843 41.439 32.8973 41.3373 32.8973H38.8029ZM45.6732 26.7733C45.8463 26.7733 45.9073 26.6433 45.8564 26.3832L45.3068 23.1261C45.2966 22.9961 45.261 22.9311 45.1999 22.9311C45.1592 22.9311 45.1134 22.9896 45.0625 23.1066L43.7953 26.4612C43.7648 26.5392 43.7495 26.6042 43.7495 26.6563C43.7495 26.7343 43.8106 26.7733 43.9327 26.7733H45.6732Z" fill="black"/>
<path d="M60.5205 18.4258C60.6935 18.4258 60.78 18.5103 60.78 18.6794C60.78 18.7574 60.7648 18.8354 60.7342 18.9134L55.6502 32.5073C55.5891 32.6633 55.5179 32.7673 55.4364 32.8193C55.3652 32.8713 55.2481 32.8973 55.0853 32.8973H52.6119C52.4491 32.8973 52.3269 32.8713 52.2455 32.8193C52.1743 32.7673 52.1285 32.6633 52.1081 32.5073L50.0012 18.8939C49.991 18.8549 49.9859 18.7964 49.9859 18.7184C49.9859 18.5233 50.0775 18.4258 50.2607 18.4258H53.2684C53.36 18.4258 53.4262 18.4648 53.4669 18.5428C53.5076 18.6208 53.5382 18.7509 53.5585 18.9329L54.6578 27.3584C54.6781 27.4754 54.6985 27.5339 54.7189 27.5339C54.7494 27.5339 54.7799 27.4819 54.8105 27.3779L57.7113 18.7379C57.752 18.6208 57.7978 18.5428 57.8487 18.5038C57.9098 18.4518 57.9912 18.4258 58.093 18.4258H60.5205Z" fill="black"/>
<path d="M64.3217 18.4258C64.4948 18.4258 64.566 18.6013 64.5355 18.9524L63.0545 32.4488C63.0342 32.6438 62.9935 32.7673 62.9324 32.8193C62.8713 32.8713 62.7492 32.8973 62.566 32.8973H59.9094C59.6957 32.8973 59.5888 32.7608 59.5888 32.4878L59.6041 32.2927L61.1003 18.7574C61.1105 18.6143 61.1308 18.5233 61.1614 18.4843C61.2021 18.4453 61.2682 18.4258 61.3599 18.4258H64.3217Z" fill="black"/>
<path d="M68.9334 33.0924C67.9664 33.0924 67.1267 32.8388 66.4142 32.3317C65.7119 31.8117 65.1725 31.0835 64.7959 30.1474C64.4193 29.2112 64.231 28.1255 64.231 26.8903C64.231 25.291 64.4956 23.8348 65.0249 22.5215C65.5643 21.1953 66.3124 20.1486 67.2692 19.3815C68.226 18.6143 69.31 18.2308 70.5212 18.2308C71.4169 18.2308 72.1955 18.4453 72.8571 18.8744C73.5187 19.3035 74.0276 19.8626 74.3838 20.5517C74.7401 21.2278 74.9335 21.9494 74.964 22.7166C74.964 22.8856 74.9538 23.0091 74.9335 23.0871C74.9233 23.1521 74.8877 23.1911 74.8266 23.2041L72.1243 23.6917C72.0734 23.7047 72.0327 23.6722 72.0021 23.5942C71.9716 23.5032 71.936 23.3342 71.8952 23.0871C71.8036 22.515 71.6459 22.0665 71.422 21.7414C71.198 21.4163 70.8469 21.2538 70.3685 21.2538C69.768 21.2538 69.2743 21.5724 68.8876 22.2095C68.5008 22.8466 68.2209 23.6462 68.0478 24.6084C67.885 25.5706 67.8036 26.5522 67.8036 27.5534C67.8036 28.4896 67.9257 29.1397 68.17 29.5038C68.4244 29.8678 68.7909 30.0498 69.2692 30.0498C70.0835 30.0498 70.7197 29.5688 71.1777 28.6066L71.254 28.4506C71.2845 28.3856 71.2998 28.3335 71.2998 28.2945C71.2998 28.2165 71.2337 28.1775 71.1013 28.1775H69.6357C69.5644 28.1775 69.5186 28.158 69.4983 28.119C69.4779 28.067 69.4728 27.9825 69.483 27.8655L69.6662 25.7981C69.6764 25.6291 69.7374 25.5446 69.8494 25.5446L74.5213 25.5836C74.6739 25.5836 74.7706 25.6096 74.8113 25.6616C74.852 25.7136 74.8622 25.8241 74.8419 25.9931L74.109 32.6243C74.0887 32.8063 73.9971 32.8973 73.8342 32.8973H73.2999C73.2083 32.8973 73.1319 32.8778 73.0708 32.8388C73.0098 32.7868 72.9589 32.6958 72.9182 32.5658L72.4601 31.4151C72.4296 31.3371 72.3838 31.2981 72.3227 31.2981C72.2617 31.2981 72.1853 31.3566 72.0937 31.4736C71.7273 31.9417 71.2998 32.3317 70.8113 32.6438C70.3329 32.9429 69.7069 33.0924 68.9334 33.0924Z" fill="black"/>
<path d="M74.3952 32.8973C74.273 32.8973 74.212 32.8323 74.212 32.7023C74.212 32.5983 74.2679 32.3903 74.3799 32.0782L79.5556 18.7769C79.6167 18.6338 79.6879 18.5428 79.7693 18.5038C79.8609 18.4518 79.9831 18.4258 80.1357 18.4258H83.1434C83.2656 18.4258 83.3521 18.4843 83.403 18.6013C83.4539 18.7054 83.4946 18.8549 83.5251 19.0499L85.7389 32.3317C85.7491 32.3708 85.7542 32.4293 85.7542 32.5073C85.7542 32.7673 85.6728 32.8973 85.5099 32.8973H82.5175C82.375 32.8973 82.2783 32.7543 82.2274 32.4683L81.8762 30.2644C81.8661 30.1994 81.8457 30.1539 81.8152 30.1279C81.7948 30.1019 81.749 30.0889 81.6778 30.0889H78.4716C78.4003 30.0889 78.3444 30.1084 78.3037 30.1474C78.2629 30.1864 78.2222 30.2514 78.1815 30.3424L77.2655 32.7023C77.2349 32.7803 77.1942 32.8323 77.1433 32.8583C77.1026 32.8843 77.0314 32.8973 76.9296 32.8973H74.3952ZM81.2655 26.7733C81.4386 26.7733 81.4996 26.6433 81.4488 26.3832L80.8991 23.1261C80.8889 22.9961 80.8533 22.9311 80.7923 22.9311C80.7515 22.9311 80.7057 22.9896 80.6548 23.1066L79.3876 26.4612C79.3571 26.5392 79.3418 26.6042 79.3418 26.6563C79.3418 26.7343 79.4029 26.7733 79.5251 26.7733H81.2655Z" fill="black"/>
<path d="M85.475 18.7574C85.4953 18.6273 85.5258 18.5428 85.5666 18.5038C85.6175 18.4518 85.704 18.4258 85.8261 18.4258H95.1087C95.2309 18.4258 95.3072 18.4518 95.3378 18.5038C95.3683 18.5428 95.3734 18.6273 95.353 18.7574L95.0782 21.3123C95.068 21.4163 95.0375 21.4878 94.9866 21.5269C94.9459 21.5529 94.8746 21.5659 94.7729 21.5659H92.0705C91.9687 21.5659 91.9026 21.5854 91.872 21.6244C91.8415 21.6634 91.816 21.7479 91.7957 21.8779L90.6201 32.5268C90.6099 32.6698 90.5794 32.7673 90.5285 32.8193C90.4878 32.8713 90.4216 32.8973 90.33 32.8973H87.4597C87.2562 32.8973 87.1544 32.7933 87.1544 32.5853C87.1544 32.5073 87.1595 32.4423 87.1696 32.3903L88.3452 21.7999V21.7414C88.3452 21.6244 88.2943 21.5659 88.1926 21.5659H85.4597C85.3477 21.5659 85.2714 21.5464 85.2307 21.5074C85.2001 21.4553 85.19 21.3708 85.2001 21.2538L85.475 18.7574Z" fill="black"/>
<path d="M98.9266 33.0924C97.9189 33.0924 97.0487 32.8453 96.3158 32.3512C95.5932 31.8442 95.0384 31.129 94.6517 30.2059C94.2649 29.2827 94.0715 28.1905 94.0715 26.9293C94.0715 26.3832 94.097 25.9021 94.1478 25.486C94.3107 24.0298 94.672 22.7556 95.2318 21.6634C95.7916 20.5582 96.5092 19.713 97.3846 19.1279C98.2599 18.5298 99.237 18.2308 100.316 18.2308C101.303 18.2308 102.158 18.4908 102.881 19.0109C103.614 19.518 104.173 20.2461 104.56 21.1953C104.947 22.1315 105.14 23.2302 105.14 24.4914C105.14 25.0375 105.115 25.5121 105.064 25.9151C104.901 27.3714 104.54 28.6391 103.98 29.7183C103.43 30.7975 102.718 31.6296 101.843 32.2147C100.978 32.7998 100.005 33.0924 98.9266 33.0924ZM99.0182 30.0498C99.7103 30.0498 100.25 29.6988 100.637 28.9967C101.023 28.2945 101.303 27.1438 101.476 25.5446C101.558 24.7514 101.598 24.1078 101.598 23.6137C101.598 22.7686 101.492 22.164 101.278 21.7999C101.064 21.4228 100.718 21.2343 100.24 21.2343C99.5474 21.2343 99.0029 21.6114 98.6059 22.3655C98.209 23.1066 97.9189 24.3093 97.7357 25.9736C97.6543 26.7408 97.6136 27.3584 97.6136 27.8265C97.6136 28.6326 97.7204 29.2047 97.9342 29.5428C98.1581 29.8808 98.5194 30.0498 99.0182 30.0498Z" fill="black"/>
<path d="M114.763 32.3708C114.783 32.4358 114.794 32.5138 114.794 32.6048C114.794 32.7998 114.697 32.8973 114.504 32.8973H111.542C111.43 32.8973 111.343 32.8648 111.282 32.7998C111.221 32.7218 111.175 32.5853 111.145 32.3903L110.259 27.3584C110.239 27.2804 110.213 27.2284 110.183 27.2023C110.163 27.1633 110.112 27.1438 110.03 27.1438H109.114C109.033 27.1438 108.977 27.1633 108.946 27.2023C108.916 27.2414 108.895 27.2999 108.885 27.3779L108.32 32.4488C108.3 32.6438 108.249 32.7673 108.168 32.8193C108.096 32.8713 107.964 32.8973 107.771 32.8973H105.206C104.941 32.8973 104.829 32.6958 104.87 32.2927L106.366 18.7574C106.376 18.6143 106.397 18.5233 106.427 18.4843C106.468 18.4453 106.534 18.4258 106.626 18.4258H111.725C113.079 18.4258 114.127 18.7574 114.87 19.4205C115.623 20.0706 116 20.9808 116 22.151C116 23.1001 115.781 23.9778 115.343 24.7839C114.916 25.5901 114.356 26.1687 113.664 26.5197C113.532 26.5847 113.45 26.6433 113.42 26.6953C113.399 26.7473 113.399 26.8188 113.42 26.9098L114.763 32.3708ZM110.946 24.2378C111.364 24.2378 111.71 24.0558 111.984 23.6917C112.269 23.3277 112.412 22.9051 112.412 22.424C112.412 22.0599 112.305 21.7869 112.091 21.6049C111.888 21.4098 111.623 21.3123 111.297 21.3123H109.74C109.669 21.3123 109.618 21.3383 109.587 21.3903C109.557 21.4423 109.531 21.5464 109.511 21.7024L109.252 23.9453V24.0428C109.252 24.1208 109.262 24.1728 109.282 24.1988C109.313 24.2248 109.358 24.2378 109.42 24.2378H110.946Z" fill="black"/>
<path d="M7.20234 4.91327L22.1887 32.436L14.6022 31.937L6.95571 18.7511L4.83352 31.234L7.73895e-08 31.0977L3.84301 6.40032C4.17625 4.25871 6.32742 3.30647 7.20234 4.91327Z" fill="black"/>
<path d="M20.1044 27.5172L5.11467 1.32522e-08L12.7009 0.495579L20.349 13.6786L22.4692 1.19424L27.3026 1.32836L23.4633 26.0287C23.1304 28.1705 20.9795 29.1237 20.1044 27.5172Z" fill="black"/>
</svg>
